<svg width="78" height="244" viewBox="0 0 78 244" fill="none" xmlns="http://www.w3.org/2000/svg">
<g opacity="0.8" filter="url(#filter0_b_89_324)">
<path d="M0 0H66C72.6274 0 78 5.37258 78 12V232.001C78 238.628 72.6274 244.001 66 244.001H0V0Z" fill="white" fill-opacity="0.2"/>
<path d="M42.9912 31.8686C43.6092 31.8686 44.2134 32.0517 44.7273 32.3949C45.2412 32.7381 45.6417 33.2258 45.8782 33.7965C46.1148 34.3671 46.1766 34.995 46.0561 35.6008C45.9355 36.2066 45.6379 36.7631 45.2008 37.1998C44.7638 37.6366 44.207 37.934 43.6008 38.0545C42.9946 38.175 42.3663 38.1132 41.7953 37.8768C41.2243 37.6404 40.7363 37.2401 40.3929 36.7266C40.0495 36.213 39.8662 35.6092 39.8662 34.9916C39.8662 34.1633 40.1955 33.369 40.7815 32.7833C41.3676 32.1976 42.1624 31.8686 42.9912 31.8686ZM42.9912 28.7456C41.7543 28.7422 40.5443 29.1057 39.5143 29.7899C38.4842 30.4741 37.6805 31.4485 37.2048 32.5894C36.7291 33.7304 36.6029 34.9868 36.8421 36.1995C37.0813 37.4122 37.6752 38.5268 38.5486 39.402C39.422 40.2772 40.5356 40.8738 41.7484 41.1162C42.9612 41.3586 44.2187 41.2359 45.3617 40.7637C46.5048 40.2914 47.4819 39.4909 48.1694 38.4634C48.8569 37.4359 49.2239 36.2276 49.2239 34.9916C49.2239 33.338 48.5678 31.7519 47.3994 30.5811C46.231 29.4102 44.6458 28.7502 42.9912 28.7456Z" fill="white"/>
<path d="M42.9912 25.7422C44.8193 25.7557 46.6025 26.3101 48.1157 27.3353C49.6289 28.3606 50.8044 29.8107 51.4938 31.5029C52.1832 33.195 52.3557 35.0533 51.9895 36.8433C51.6233 38.6333 50.7348 40.2748 49.4361 41.5607C48.1374 42.8466 46.4867 43.7193 44.6923 44.0687C42.8979 44.4181 41.0401 44.2286 39.3533 43.524C37.6665 42.8193 36.2264 41.6313 35.2145 40.1096C34.2027 38.5879 33.6645 36.8008 33.6678 34.9738C33.6724 32.5193 34.6512 30.1669 36.3895 28.4329C38.1279 26.6989 40.4836 25.725 42.9396 25.725L42.9912 25.7422ZM42.9396 22.6021C40.4912 22.6021 38.0977 23.3277 36.0619 24.6871C34.0261 26.0465 32.4394 27.9787 31.5024 30.2393C30.5654 32.5 30.3203 34.9875 30.7979 37.3874C31.2756 39.7873 32.4546 41.9917 34.186 43.7219C35.9173 45.4521 38.1231 46.6304 40.5245 47.1078C42.9259 47.5851 45.415 47.3402 47.6771 46.4038C49.9392 45.4674 51.8726 43.8817 53.2329 41.8471C54.5932 39.8126 55.3192 37.4207 55.3192 34.9738C55.3192 31.6926 54.0149 28.5458 51.6933 26.2257C49.3717 23.9055 46.2229 22.6021 42.9396 22.6021Z" fill="white"/>
<path d="M42.9741 19.5314C46.0305 19.5314 49.0181 20.4371 51.5594 22.134C54.1006 23.8309 56.0813 26.2429 57.2509 29.0647C58.4205 31.8866 58.7265 34.9917 58.1302 37.9874C57.534 40.9831 56.0622 43.7348 53.9011 45.8946C51.7399 48.0544 48.9865 49.5252 45.9889 50.1211C42.9913 50.717 39.8842 50.4111 37.0605 49.2423C34.2369 48.0734 31.8234 46.094 30.1254 43.5544C28.4274 41.0148 27.5211 38.029 27.5211 34.9746C27.5211 30.8788 29.1492 26.9507 32.0472 24.0546C34.9452 21.1584 38.8757 19.5314 42.9741 19.5314ZM42.9741 16.4084C39.2874 16.4084 35.6835 17.5017 32.6188 19.5497C29.5541 21.5977 27.1664 24.5084 25.7579 27.9133C24.3494 31.3183 23.9835 35.0643 24.7065 38.6772C25.4295 42.29 27.2089 45.6073 29.8194 48.209C32.43 50.8106 35.7542 52.5797 39.3714 53.2923C42.9885 54.0048 46.7359 53.6287 50.1391 52.2117C53.5423 50.7947 56.4482 48.4004 58.4891 45.332C60.5299 42.2636 61.6138 38.659 61.6036 34.9746C61.6036 30.0369 59.6409 25.3014 56.1472 21.8099C52.6535 18.3184 47.915 16.3569 42.9741 16.3569V16.4084Z" fill="white"/>
<path d="M42.974 13.4566C47.2366 13.4566 51.4035 14.72 54.9475 17.087C58.4914 19.454 61.2533 22.8183 62.8838 26.7543C64.5142 30.6902 64.9399 35.021 64.1071 39.1988C63.2743 43.3766 61.2203 47.2137 58.205 50.2247C55.1897 53.2357 51.3485 55.2853 47.1674 56.1143C42.9863 56.9432 38.6531 56.5144 34.7159 54.8818C30.7788 53.2493 27.4146 50.4864 25.0489 46.9428C22.6832 43.3992 21.4223 39.234 21.4257 34.9741C21.4347 29.2655 23.7079 23.7934 27.7471 19.7568C31.7862 15.7202 37.2618 13.4485 42.974 13.4394V13.4566ZM42.974 10.3164C38.0948 10.3198 33.3262 11.7688 29.2709 14.4803C25.2157 17.1918 22.0559 21.044 20.1911 25.5499C18.3263 30.0558 17.8401 35.0131 18.7941 39.7951C19.748 44.5771 22.0993 48.969 25.5506 52.4158C29.0019 55.8625 33.3983 58.2092 38.184 59.1592C42.9697 60.1092 47.9298 59.6199 52.4372 57.7532C56.9447 55.8864 60.7971 52.7259 63.5075 48.6714C66.2179 44.6168 67.6645 39.8502 67.6645 34.9741C67.6668 31.7339 67.0296 28.5251 65.7893 25.5314C64.5491 22.5376 62.7302 19.8177 60.4368 17.5274C58.1434 15.237 55.4206 13.4212 52.4241 12.1838C49.4275 10.9465 46.2163 10.3119 42.974 10.3164Z" fill="white"/>
<path d="M16.0171 41.3914V49.9709C18.8265 55.0148 22.9891 59.1747 28.0361 61.9824H36.6211C31.6183 60.788 27.0444 58.2315 23.4074 54.5967C19.7703 50.9619 17.2122 46.391 16.0171 41.3914Z" fill="white"/>
<path d="M69.9996 41.1685C68.8344 46.2237 66.2752 50.8516 62.6122 54.5275C58.9493 58.2033 54.329 60.7799 49.2754 61.9653H57.8604C62.9113 59.1628 67.0752 55.0016 69.8794 49.9539L69.9996 41.1685Z" fill="white"/>
<path d="M16.0186 28.591C17.2101 23.5896 19.7669 19.0167 23.4046 15.3814C27.0423 11.746 31.618 9.19075 36.6226 8L28.0376 8C22.9866 10.8025 18.8228 14.9637 16.0186 20.0114V28.591Z" fill="white"/>
<path d="M70 28.814V20.1143C67.2086 15.0349 63.0436 10.8428 57.981 8.01709L49.396 8.01709C54.4275 9.22225 59.0223 11.8077 62.6626 15.4821C66.303 19.1565 68.8442 23.7739 70 28.814Z" fill="white"/>
<path d="M16.0171 55.4277V60.2838C16.5665 60.85 17.1331 61.4163 17.7341 61.9997H22.576C20.0969 60.1219 17.8896 57.9102 16.0171 55.4277Z" fill="white"/>
<path d="M69.9995 55.3591C68.1174 57.8548 65.8986 60.078 63.4062 61.9654H68.2482C68.8663 61.3991 69.4329 60.8157 69.9652 60.2495L69.9995 55.3591Z" fill="white"/>
<path d="M69.9994 14.6232V9.76718C69.4328 9.16661 68.8662 8.5832 68.2824 8.05127H63.4404C65.9183 9.93059 68.1254 12.142 69.9994 14.6232Z" fill="white"/>
<path d="M16.0172 14.556C17.8869 12.0868 20.0882 9.88683 22.5589 8.01831L17.717 8.01831C17.1332 8.5674 16.5666 9.1165 16 9.73423L16.0172 14.556Z" fill="white"/>
<path d="M43.0686 101.828L51.8968 93.0001L43.0686 84.1719L34.2231 93.0001L43.0686 101.828ZM47.4655 93.0001L43.0686 97.4142L38.6544 93.0001L43.0686 88.586L47.4655 93.0001Z" fill="white"/>
<path d="M43.0687 110.484L60.5535 92.999L43.0687 75.5144L25.481 92.999L43.0687 110.484ZM56.1222 92.999L43.0687 106.07L29.9981 92.999L43.0687 79.9285L56.1222 92.999Z" fill="white"/>
<path d="M43.0683 119.192L69.2782 92.965L43.0683 66.7896L16.7554 92.9993L43.0683 119.192ZM64.8641 92.965L43.0683 114.795L21.2554 92.9993L43.0683 71.2036L64.8641 92.965Z" fill="white"/>
<path d="M16 114.161V118.575L17.4256 120H21.8397L16 114.161Z" fill="white"/>
<path d="M69.9996 114.108L64.1084 119.999H68.5225L69.9996 118.522V114.108Z" fill="white"/>
<path d="M70.0001 71.891V67.4769L68.523 65.9998H64.1089L70.0001 71.891Z" fill="white"/>
<path d="M16 96.5554V100.987L35.0305 120H39.4446L16 96.5554Z" fill="white"/>
<path d="M70.0001 89.4958V85.0817L50.9352 65.9998H46.5039L70.0001 89.4958Z" fill="white"/>
<path d="M46.5034 120H50.9175L69.9996 100.918V96.5039L46.5034 120Z" fill="white"/>
<path d="M16 89.4443L39.4446 65.9998H35.0305L16 85.0302V89.4443Z" fill="white"/>
<path d="M30.7366 65.9998H26.3053L16 76.305L16 80.7363L30.7366 65.9998Z" fill="white"/>
<path d="M55.229 120H59.6431L70 109.643V105.229L55.229 120Z" fill="white"/>
<path d="M16 105.28V109.694L26.3053 120H30.7366L16 105.28Z" fill="white"/>
<path d="M55.229 65.9998L70 80.7878V76.3566L59.6431 65.9998H55.229Z" fill="white"/>
<path d="M21.8397 65.9998H17.4256L16 67.4253V71.8394L21.8397 65.9998Z" fill="white"/>
<path d="M16.2217 144.311V150.606L29.5258 127.123H56.4917L69.7788 150.606V144.311L58.3144 124.035L27.7031 124.035L16.2217 144.311Z" fill="white"/>
<path d="M31.1439 171.894H54.8222L66.7465 151.001L54.8222 130.09H31.1439L19.3389 150.949L31.1439 171.894ZM32.9496 133.212H53.0335L63.101 150.949L53.0335 168.789H32.9666L22.8991 150.949L32.9496 133.212Z" fill="white"/>
<path d="M34.5506 165.959H51.4831L60.0004 151.001L51.4831 136.042H34.5506L26.0332 150.949L34.5506 165.959ZM36.3562 139.164H49.6944L56.3891 151.001L49.6944 162.837H36.3392L29.6275 150.949L36.3562 139.164Z" fill="white"/>
<path d="M37.8555 160.092H48.0764L53.1868 151.001L48.0764 141.892H37.8555L32.7451 151.001L37.8555 160.092ZM39.6612 145.014H46.3729L49.7798 151.001L46.3729 156.97H39.6612L36.2543 150.949L39.6612 145.014Z" fill="white"/>
<path d="M41.2795 154.054H44.7205L46.4581 151.001L44.7205 147.948H41.2795L39.542 151.001L41.2795 154.054Z" fill="white"/>
<path d="M70.0003 151.001L69.7788 150.606V151.396L70.0003 151.001Z" fill="white"/>
<path d="M16.2215 151.396V150.606L16 151.001L16.2215 151.396Z" fill="white"/>
<path d="M27.7202 124L27.7031 124.035H58.3145L58.2804 124H27.7202Z" fill="white"/>
<path d="M27.7202 178.001H58.2804L58.3145 177.966H27.7031L27.7202 178.001Z" fill="white"/>
<path d="M56.4917 174.878H29.5258L16.2217 151.395V157.69L27.7031 177.966H58.3144L69.7788 157.69V151.395L56.4917 174.878Z" fill="white"/>
<path d="M61.415 177.966H64.9753L69.7791 169.475V163.18L61.415 177.966Z" fill="white"/>
<path d="M16.2217 163.18V169.475L21.0255 177.966H24.5857L16.2217 163.18Z" fill="white"/>
<path d="M24.5857 124.035H21.0255L16.2217 132.509L16.2217 138.821L24.5857 124.035Z" fill="white"/>
<path d="M69.7791 138.821V132.509L64.9753 124.035H61.415L69.7791 138.821Z" fill="white"/>
<path d="M16.2217 124.035V126.677L17.7207 124.035H16.2217Z" fill="white"/>
<path d="M69.7788 124.035H68.2798L69.7788 126.677V124.035Z" fill="white"/>
<path d="M69.7788 175.324L68.2798 177.966H69.7788V175.324Z" fill="white"/>
<path d="M16.2217 177.966H17.7207L16.2217 175.324V177.966Z" fill="white"/>
<path d="M16 182V184.439L18.4561 182H16Z" fill="white"/>
<path d="M67.5098 182.001L70.0002 184.491V182.001H67.5098Z" fill="white"/>
<path d="M59.0073 182.001L69.9997 192.993V188.579L63.4214 182.001H59.0073Z" fill="white"/>
<path d="M22.5267 182L16 188.527V192.941L26.958 182H22.5267Z" fill="white"/>
<path d="M31.3721 182L16 197.355V201.787L35.7862 182H31.3721Z" fill="white"/>
<path d="M50.1792 182.001L69.9997 201.838V197.407L54.5933 182.001H50.1792Z" fill="white"/>
<path d="M40.0972 182L16 206.098V210.512L42.9827 183.529L69.9998 210.563V206.149L45.8682 182H40.0972Z" fill="white"/>
<path d="M16 214.805V219.219L42.9827 192.254L69.9998 219.271V214.857L42.9827 187.822L16 214.805Z" fill="white"/>
<path d="M38.5688 236.001H47.3799L42.983 231.587L38.5688 236.001Z" fill="white"/>
<path d="M29.8262 236.001H34.2403L42.9826 227.259L51.7078 236.001H56.1391L42.9826 222.844L29.8262 236.001Z" fill="white"/>
<path d="M42.9833 218.532L60.4508 236H64.8649L42.9833 214.101L21.0845 236H25.5157L42.9833 218.532Z" fill="white"/>
<path d="M16 232.359V236H16.7901L42.9827 209.807L69.1754 236H69.9998V232.41L42.9827 205.393L16 232.359Z" fill="white"/>
<path d="M16 223.548V227.963L42.9827 200.98L69.9998 228.014V223.583L42.9827 196.566L16 223.548Z" fill="white"/>
</g>
<defs>
<filter id="filter0_b_89_324" x="-16" y="-16" width="110" height="276.001" filterUnits="userSpaceOnUse" color-interpolation-filters="sRGB">
<feFlood flood-opacity="0" result="BackgroundImageFix"/>
<feGaussianBlur in="BackgroundImageFix" stdDeviation="8"/>
<feComposite in2="SourceAlpha" operator="in" result="effect1_backgroundBlur_89_324"/>
<feBlend mode="normal" in="SourceGraphic" in2="effect1_backgroundBlur_89_324" result="shape"/>
</filter>
</defs>
</svg>
